<svg width="534" height="293" viewBox="0 0 534 293" fill="none" xmlns="http://www.w3.org/2000/svg">
<path d="M366.772 70.4413C377.123 66.9294 382.075 55.4036 377.715 44.7353C373.356 33.9649 361.351 28.0948 350.999 31.6169C340.647 35.1389 335.686 46.6546 340.045 57.333C344.404 68.0013 356.41 73.9735 366.761 70.4515M234.791 44.7761C239.14 55.4444 234.199 66.9702 223.847 70.4923C213.485 73.9021 201.479 68.0422 197.12 57.3637C192.771 46.6954 197.712 35.0675 208.064 31.6475C218.426 28.1254 230.432 33.9955 234.791 44.7761Z" fill="white"/>
<path d="M410.027 67.5828V61.2942H410.057V40.8355C410.057 40.417 410.108 40.223 410.118 40.172L410.2 39.9882L410.721 39.3042C411.068 38.9163 411.466 38.4977 412.14 37.8239L412.334 37.6198C415.008 34.9144 420.052 29.8202 420.133 20.6015V20.3565C420.125 14.9672 417.984 9.80028 414.177 5.98561C410.37 2.17095 405.207 0.018885 399.818 0H307.733C306.617 0 305.518 0.0884773 304.436 0.265431C295.04 1.42387 286.333 5.79517 279.792 12.6386C278.893 13.4961 278.056 14.3333 277.342 15.0479L277.301 15.0887C274.963 17.4164 273.789 18.5189 272.472 19.2744C271.451 19.8563 269.95 20.4586 267.031 20.4586C263.917 20.4586 262.406 19.8461 261.446 19.2948C260.17 18.5802 259.027 17.5082 256.638 15.0989L256.587 15.0479C255.801 14.2618 254.882 13.3226 253.861 12.363C247.414 5.72026 238.9 1.46541 229.717 0.296061C228.577 0.0998276 227.423 0.000782675 226.267 0H134.182C122.851 0 113.867 9.29008 113.867 20.4076V20.4178C113.867 29.7793 119.073 34.9552 121.809 37.6708L122.013 37.875C122.708 38.559 123.126 38.9775 123.483 39.3859C123.726 39.6585 123.938 39.9562 124.116 40.2741C124.171 40.4838 124.192 40.7009 124.178 40.9172V42.2137C124.137 43.0468 124.116 43.8808 124.116 44.7149V67.5828C124.116 102.477 150.353 132.613 184.686 132.613H204.828C239.844 132.613 267 101.936 267 66.0515C267 101.936 294.094 132.511 329.141 132.511H349.304C383.483 132.511 410.027 102.671 410.027 67.5828ZM389.537 67.4807C389.537 91.9821 371.825 112.349 349.212 112.349H329.039C305.661 112.349 287.489 91.3695 287.489 65.9494V44.7149C287.571 31.3413 296.718 20.4178 309.061 20.4178H367.864C380.217 20.4178 389.537 31.3413 389.537 44.7149V67.4807ZM204.828 112.339H184.778C162.185 112.339 144.524 92.0842 144.524 67.5828V44.7149C144.524 31.3413 153.814 20.4178 166.136 20.4178H224.97C237.302 20.4178 246.643 31.3413 246.643 44.7149V66.0515C246.643 91.3695 228.267 112.339 204.828 112.339Z" fill="white"/>
<path d="M72.0938 153.801L62.4844 177.285C58.9531 175.598 55.5781 174.317 52.3594 173.442C49.1719 172.535 46.3594 171.879 43.9219 171.473C41.0469 171.004 38.375 170.77 35.9062 170.77C32.25 170.832 29.1562 171.114 26.625 171.614C24.0938 172.082 22.0625 172.739 20.5312 173.582C19.0312 174.395 17.9844 175.332 17.3906 176.395C16.8281 177.457 16.6875 178.598 16.9688 179.817C17.2812 181.192 18.0156 182.285 19.1719 183.098C20.3281 183.879 21.875 184.473 23.8125 184.879C25.75 185.254 28.0469 185.504 30.7031 185.629C33.3906 185.754 36.4062 185.832 39.75 185.864C41.5 185.895 43.4375 185.957 45.5625 186.051C47.7188 186.145 49.8906 186.395 52.0781 186.801C54.2969 187.176 56.4375 187.754 58.5 188.535C60.5625 189.317 62.3906 190.41 63.9844 191.817C65.6094 193.223 66.9062 194.989 67.875 197.114C68.8438 199.239 69.3281 201.848 69.3281 204.942C69.3281 207.754 68.9219 210.192 68.1094 212.254C67.2969 214.317 66.2031 216.082 64.8281 217.551C63.4531 218.989 61.8281 220.176 59.9531 221.114C58.1094 222.02 56.1406 222.739 54.0469 223.27C51.9531 223.801 49.7969 224.16 47.5781 224.348C45.3594 224.535 43.2031 224.629 41.1094 224.629C38.4531 224.629 35.9062 224.504 33.4688 224.254C31.0625 224.035 28.7031 223.707 26.3906 223.27C24.0781 222.832 21.7656 222.317 19.4531 221.723C17.1719 221.098 14.8438 220.41 12.4688 219.66L9.70312 227.91L3.09375 225.989L9.14062 202.832C11.9531 204.051 14.7344 205.145 17.4844 206.114C20.2656 207.082 23.0469 207.91 25.8281 208.598C28.6406 209.254 31.4688 209.754 34.3125 210.098C37.1562 210.442 40.0625 210.614 43.0312 210.614C45.9375 210.614 48.4219 210.442 50.4844 210.098C52.5469 209.754 54.2188 209.239 55.5 208.551C56.8125 207.864 57.7656 207.004 58.3594 205.973C58.9531 204.942 59.25 203.739 59.25 202.364C59.25 200.645 58.8125 199.285 57.9375 198.285C57.0625 197.285 55.7344 196.52 53.9531 195.989C52.2031 195.457 50 195.098 47.3438 194.91C44.7188 194.723 41.6406 194.582 38.1094 194.489C35.6406 194.426 33.0469 194.332 30.3281 194.207C27.6094 194.082 24.9375 193.817 22.3125 193.41C19.6875 193.004 17.1875 192.41 14.8125 191.629C12.4375 190.848 10.3438 189.77 8.53125 188.395C6.75 187.02 5.32812 185.301 4.26562 183.239C3.20312 181.176 2.67188 178.66 2.67188 175.692C2.67188 173.035 3.09375 170.645 3.9375 168.52C4.8125 166.364 6.03125 164.473 7.59375 162.848C9.15625 161.192 11 159.785 13.125 158.629C15.2812 157.442 17.6406 156.489 20.2031 155.77C22.7969 155.02 25.5312 154.489 28.4062 154.176C31.3125 153.864 34.2969 153.739 37.3594 153.801C40.4844 153.957 43.5781 154.27 46.6406 154.739C47.9219 154.926 49.2656 155.176 50.6719 155.489C52.0781 155.77 53.4688 156.129 54.8438 156.567C56.2188 156.973 57.5469 157.457 58.8281 158.02C60.1094 158.551 61.2969 159.16 62.3906 159.848L64.4062 150.707L72.0938 153.801ZM130.547 206.582C129.359 209.676 127.703 212.364 125.578 214.645C123.484 216.895 121.109 218.77 118.453 220.27C115.797 221.739 112.984 222.832 110.016 223.551C107.047 224.27 104.125 224.629 101.25 224.629C97.25 224.629 93.6875 224.004 90.5625 222.754C87.4375 221.504 84.7812 219.817 82.5938 217.692C80.4062 215.567 78.6875 213.082 77.4375 210.239C76.2188 207.364 75.5156 204.317 75.3281 201.098C75.3281 196.192 76.1406 192.004 77.7656 188.535C79.4219 185.035 81.6562 182.192 84.4688 180.004C87.3125 177.817 90.625 176.223 94.4062 175.223C98.1875 174.192 102.203 173.676 106.453 173.676C108.016 173.676 109.625 173.785 111.281 174.004C112.969 174.223 114.609 174.614 116.203 175.176C117.797 175.739 119.312 176.52 120.75 177.52C122.219 178.489 123.531 179.754 124.688 181.317C125.875 182.848 126.875 184.692 127.688 186.848C128.5 189.004 129.062 191.551 129.375 194.489L90.8906 201.379C91.1406 203.535 91.5781 205.645 92.2031 207.707C92.8594 209.77 93.7344 211.598 94.8281 213.192C95.9219 214.754 97.2656 216.004 98.8594 216.942C100.484 217.848 102.406 218.27 104.625 218.207C107.031 217.926 109.156 217.207 111 216.051C111.781 215.551 112.531 214.942 113.25 214.223C113.969 213.473 114.594 212.582 115.125 211.551C115.656 210.52 116.047 209.317 116.297 207.942C116.547 206.567 116.594 204.989 116.438 203.207L130.547 206.582ZM112.781 191.489C112.656 190.02 112.391 188.739 111.984 187.645C111.578 186.551 111.062 185.614 110.438 184.832C109.844 184.051 109.172 183.41 108.422 182.91C107.703 182.379 106.969 181.957 106.219 181.645C104.469 180.926 102.5 180.598 100.312 180.66C98.25 180.91 96.5781 181.504 95.2969 182.442C94.0156 183.348 93.0156 184.489 92.2969 185.864C91.6094 187.207 91.1406 188.707 90.8906 190.364C90.6406 192.02 90.5156 193.707 90.5156 195.426L112.781 191.489ZM189.234 206.582C188.047 209.676 186.391 212.364 184.266 214.645C182.172 216.895 179.797 218.77 177.141 220.27C174.484 221.739 171.672 222.832 168.703 223.551C165.734 224.27 162.812 224.629 159.938 224.629C155.938 224.629 152.375 224.004 149.25 222.754C146.125 221.504 143.469 219.817 141.281 217.692C139.094 215.567 137.375 213.082 136.125 210.239C134.906 207.364 134.203 204.317 134.016 201.098C134.016 196.192 134.828 192.004 136.453 188.535C138.109 185.035 140.344 182.192 143.156 180.004C146 177.817 149.312 176.223 153.094 175.223C156.875 174.192 160.891 173.676 165.141 173.676C166.703 173.676 168.312 173.785 169.969 174.004C171.656 174.223 173.297 174.614 174.891 175.176C176.484 175.739 178 176.52 179.438 177.52C180.906 178.489 182.219 179.754 183.375 181.317C184.562 182.848 185.562 184.692 186.375 186.848C187.188 189.004 187.75 191.551 188.062 194.489L149.578 201.379C149.828 203.535 150.266 205.645 150.891 207.707C151.547 209.77 152.422 211.598 153.516 213.192C154.609 214.754 155.953 216.004 157.547 216.942C159.172 217.848 161.094 218.27 163.312 218.207C165.719 217.926 167.844 217.207 169.688 216.051C170.469 215.551 171.219 214.942 171.938 214.223C172.656 213.473 173.281 212.582 173.812 211.551C174.344 210.52 174.734 209.317 174.984 207.942C175.234 206.567 175.281 204.989 175.125 203.207L189.234 206.582ZM171.469 191.489C171.344 190.02 171.078 188.739 170.672 187.645C170.266 186.551 169.75 185.614 169.125 184.832C168.531 184.051 167.859 183.41 167.109 182.91C166.391 182.379 165.656 181.957 164.906 181.645C163.156 180.926 161.188 180.598 159 180.66C156.938 180.91 155.266 181.504 153.984 182.442C152.703 183.348 151.703 184.489 150.984 185.864C150.297 187.207 149.828 188.707 149.578 190.364C149.328 192.02 149.203 193.707 149.203 195.426L171.469 191.489ZM262.5 153.801L252.891 177.285C249.359 175.598 245.984 174.317 242.766 173.442C239.578 172.535 236.766 171.879 234.328 171.473C231.453 171.004 228.781 170.77 226.312 170.77C222.656 170.832 219.562 171.114 217.031 171.614C214.5 172.082 212.469 172.739 210.938 173.582C209.438 174.395 208.391 175.332 207.797 176.395C207.234 177.457 207.094 178.598 207.375 179.817C207.688 181.192 208.422 182.285 209.578 183.098C210.734 183.879 212.281 184.473 214.219 184.879C216.156 185.254 218.453 185.504 221.109 185.629C223.797 185.754 226.812 185.832 230.156 185.864C231.906 185.895 233.844 185.957 235.969 186.051C238.125 186.145 240.297 186.395 242.484 186.801C244.703 187.176 246.844 187.754 248.906 188.535C250.969 189.317 252.797 190.41 254.391 191.817C256.016 193.223 257.312 194.989 258.281 197.114C259.25 199.239 259.734 201.848 259.734 204.942C259.734 207.754 259.328 210.192 258.516 212.254C257.703 214.317 256.609 216.082 255.234 217.551C253.859 218.989 252.234 220.176 250.359 221.114C248.516 222.02 246.547 222.739 244.453 223.27C242.359 223.801 240.203 224.16 237.984 224.348C235.766 224.535 233.609 224.629 231.516 224.629C228.859 224.629 226.312 224.504 223.875 224.254C221.469 224.035 219.109 223.707 216.797 223.27C214.484 222.832 212.172 222.317 209.859 221.723C207.578 221.098 205.25 220.41 202.875 219.66L200.109 227.91L193.5 225.989L199.547 202.832C202.359 204.051 205.141 205.145 207.891 206.114C210.672 207.082 213.453 207.91 216.234 208.598C219.047 209.254 221.875 209.754 224.719 210.098C227.562 210.442 230.469 210.614 233.438 210.614C236.344 210.614 238.828 210.442 240.891 210.098C242.953 209.754 244.625 209.239 245.906 208.551C247.219 207.864 248.172 207.004 248.766 205.973C249.359 204.942 249.656 203.739 249.656 202.364C249.656 200.645 249.219 199.285 248.344 198.285C247.469 197.285 246.141 196.52 244.359 195.989C242.609 195.457 240.406 195.098 237.75 194.91C235.125 194.723 232.047 194.582 228.516 194.489C226.047 194.426 223.453 194.332 220.734 194.207C218.016 194.082 215.344 193.817 212.719 193.41C210.094 193.004 207.594 192.41 205.219 191.629C202.844 190.848 200.75 189.77 198.938 188.395C197.156 187.02 195.734 185.301 194.672 183.239C193.609 181.176 193.078 178.66 193.078 175.692C193.078 173.035 193.5 170.645 194.344 168.52C195.219 166.364 196.438 164.473 198 162.848C199.562 161.192 201.406 159.785 203.531 158.629C205.688 157.442 208.047 156.489 210.609 155.77C213.203 155.02 215.938 154.489 218.812 154.176C221.719 153.864 224.703 153.739 227.766 153.801C230.891 153.957 233.984 154.27 237.047 154.739C238.328 154.926 239.672 155.176 241.078 155.489C242.484 155.77 243.875 156.129 245.25 156.567C246.625 156.973 247.953 157.457 249.234 158.02C250.516 158.551 251.703 159.16 252.797 159.848L254.812 150.707L262.5 153.801ZM318.141 209.864L317.859 221.77L277.547 222.989V208.223L293.203 208.879L290.203 171.051L273.516 171.145L273.234 184.879H265.172L267.562 156.942L329.203 154.457L332.766 183.66L323.906 184.879L323.625 170.864L305.016 170.957L301.922 209.16L318.141 209.864ZM398.859 183.426L389.156 183.848C389.312 185.16 389.484 186.66 389.672 188.348C389.859 190.035 390.047 191.817 390.234 193.692C390.422 195.535 390.594 197.442 390.75 199.41C390.938 201.348 391.078 203.254 391.172 205.129C391.297 206.973 391.391 208.739 391.453 210.426C391.516 212.114 391.516 213.614 391.453 214.926C391.297 218.926 390.406 222.489 388.781 225.614C387.156 228.739 384.969 231.364 382.219 233.489C379.5 235.645 376.297 237.285 372.609 238.41C368.922 239.535 364.953 240.098 360.703 240.098C357.578 240.098 354.531 239.629 351.562 238.692C348.625 237.785 345.859 236.582 343.266 235.082L347.297 228.848C349.516 230.004 351.844 230.942 354.281 231.66C356.719 232.41 359.25 232.785 361.875 232.785C365.062 232.785 367.578 232.332 369.422 231.426C371.266 230.551 372.656 229.364 373.594 227.864C374.531 226.364 375.125 224.645 375.375 222.707C375.656 220.77 375.828 218.754 375.891 216.66C373.641 218.379 371.422 219.692 369.234 220.598C367.078 221.504 365.156 222.176 363.469 222.614C361.5 223.114 359.625 223.395 357.844 223.457C354.875 223.457 352.406 223.082 350.438 222.332C348.469 221.551 346.891 220.473 345.703 219.098C344.547 217.692 343.719 216.02 343.219 214.082C342.719 212.114 342.469 209.926 342.469 207.52C342.469 206.239 342.484 205.114 342.516 204.145C342.547 203.176 342.594 202.254 342.656 201.379C342.75 200.473 342.844 199.551 342.938 198.614C343.062 197.676 343.203 196.598 343.359 195.379C343.547 194.16 343.734 192.754 343.922 191.16C344.141 189.535 344.391 187.598 344.672 185.348L334.688 185.957L336.141 174.707L359.297 175.692C358.922 179.16 358.594 182.176 358.312 184.739C358.031 187.27 357.781 189.473 357.562 191.348C357.375 193.223 357.203 194.817 357.047 196.129C356.922 197.442 356.812 198.614 356.719 199.645C356.625 200.645 356.562 201.551 356.531 202.364C356.5 203.145 356.484 203.973 356.484 204.848C356.484 206.254 356.594 207.582 356.812 208.832C357.031 210.082 357.406 211.176 357.938 212.114C358.5 213.051 359.219 213.785 360.094 214.317C361 214.848 362.109 215.114 363.422 215.114C364.797 215.051 366.219 214.707 367.688 214.082C368.938 213.551 370.297 212.723 371.766 211.598C373.266 210.442 374.734 208.801 376.172 206.676C376.266 204.457 376.312 202.176 376.312 199.832C376.344 197.457 376.359 195.16 376.359 192.942V184.317L365.719 184.692L366.656 174.707L398.859 175.879V183.426ZM474.422 192.379L468.562 220.129L404.062 222.614V207.848L417.422 208.223L416.156 168.473L404.062 168.848V154.082L444.656 155.723L444.375 167.582L430.922 168.098L427.406 208.41L462.234 209.254L464.625 192.379H474.422ZM531.891 206.582C530.703 209.676 529.047 212.364 526.922 214.645C524.828 216.895 522.453 218.77 519.797 220.27C517.141 221.739 514.328 222.832 511.359 223.551C508.391 224.27 505.469 224.629 502.594 224.629C498.594 224.629 495.031 224.004 491.906 222.754C488.781 221.504 486.125 219.817 483.938 217.692C481.75 215.567 480.031 213.082 478.781 210.239C477.562 207.364 476.859 204.317 476.672 201.098C476.672 196.192 477.484 192.004 479.109 188.535C480.766 185.035 483 182.192 485.812 180.004C488.656 177.817 491.969 176.223 495.75 175.223C499.531 174.192 503.547 173.676 507.797 173.676C509.359 173.676 510.969 173.785 512.625 174.004C514.312 174.223 515.953 174.614 517.547 175.176C519.141 175.739 520.656 176.52 522.094 177.52C523.562 178.489 524.875 179.754 526.031 181.317C527.219 182.848 528.219 184.692 529.031 186.848C529.844 189.004 530.406 191.551 530.719 194.489L492.234 201.379C492.484 203.535 492.922 205.645 493.547 207.707C494.203 209.77 495.078 211.598 496.172 213.192C497.266 214.754 498.609 216.004 500.203 216.942C501.828 217.848 503.75 218.27 505.969 218.207C508.375 217.926 510.5 217.207 512.344 216.051C513.125 215.551 513.875 214.942 514.594 214.223C515.312 213.473 515.938 212.582 516.469 211.551C517 210.52 517.391 209.317 517.641 207.942C517.891 206.567 517.938 204.989 517.781 203.207L531.891 206.582ZM514.125 191.489C514 190.02 513.734 188.739 513.328 187.645C512.922 186.551 512.406 185.614 511.781 184.832C511.188 184.051 510.516 183.41 509.766 182.91C509.047 182.379 508.312 181.957 507.562 181.645C505.812 180.926 503.844 180.598 501.656 180.66C499.594 180.91 497.922 181.504 496.641 182.442C495.359 183.348 494.359 184.489 493.641 185.864C492.953 187.207 492.484 188.707 492.234 190.364C491.984 192.02 491.859 193.707 491.859 195.426L514.125 191.489Z" fill="white"/>
<path d="M435 249.614C435 339.614 99 249.614 99 249.614" stroke="white" stroke-width="6"/>
</svg>
